<?xml version="1.0" encoding="UTF-8"?>
<svg id="Capa_1" data-name="Capa 1" xmlns="http://www.w3.org/2000/svg" viewBox="0 0 145.11 125.92">
  <defs>
    <style>
      .cls-1, .cls-2 {
        fill: #063144;
      }

      .cls-2 {
        font-family: BebasKai, 'Bebas Kai';
        font-size: 9.9px;
      }

      .cls-3 {
        fill: #f6ea56;
      }

      .cls-4 {
        letter-spacing: 0em;
      }

      .cls-5 {
        letter-spacing: 0em;
      }

      .cls-6 {
        letter-spacing: 0em;
      }

      .cls-7 {
        letter-spacing: 0em;
      }
    </style>
  </defs>
  <path class="cls-3" d="M132.61,50.14V15.41c0-5.14-4.47-9.31-9.99-9.31H2.78v42.68c0,6.24,4.31,11.53,10.31,13.45v1.44c-6,1.92-10.31,7.21-10.31,13.45v42.68h119.84c5.52,0,9.99-4.17,9.99-9.31v-34.73c.56-5.46,4.43-10.02,9.72-11.92v-1.79c-5.3-1.89-9.17-6.46-9.72-11.92Z"/>
  <g>
    <text class="cls-2" transform="translate(23.71 94.64) scale(1.07 1)"><tspan x="0" y="0">LIB</tspan><tspan class="cls-7" x="9.78" y="0">R</tspan><tspan x="13.91" y="0">O DE RECLAM</tspan><tspan class="cls-4" x="55.24" y="0">A</tspan><tspan x="59.3" y="0">CION</tspan><tspan class="cls-6" x="74.35" y="0">E</tspan><tspan class="cls-5" x="78.18" y="0">S</tspan></text>
    <path class="cls-1" d="M83.15,30.59c-6.22,0-11.74,2.83-15.16,7.18h-.91c-3.42-4.35-8.94-7.18-15.16-7.18h-20v39.23h28.95c1.86,0,3.38,1.41,3.38,3.15v1.4h6.56v-1.4c0-1.74,1.52-3.15,3.38-3.15h28.95V30.59h-20ZM60.86,63.8h-22.49v-27.19h13.54c6.8,0,12.33,5.15,12.33,11.49v16.51l-.59.28c-.47-.49-1.27-1.02-2.55-1.08-.08,0-.16,0-.24,0ZM96.68,63.8h-22.49c-.08,0-.16,0-.24,0-1.28.06-2.07.59-2.55,1.08l-.59-.28v-16.51c0-6.33,5.53-11.49,12.33-11.49h13.53v27.19Z"/>
  </g>
</svg>