<?xml version="1.0" encoding="UTF-8"?>
<svg id="Capa_1" data-name="Capa 1" xmlns="http://www.w3.org/2000/svg" viewBox="0 0 148.3 125.92">
  <defs>
    <style>
      .cls-1 {
        fill: #063144;
      }

      .cls-2 {
        fill: #f6ea56;
      }
    </style>
  </defs>
  <path class="cls-2" d="M138.57,51.2V16.47c0-5.14-4.47-9.31-9.99-9.31H8.74v42.68c0,6.24,4.31,11.53,10.31,13.45v1.44c-6,1.92-10.31,7.21-10.31,13.45v42.68h119.84c5.52,0,9.99-4.17,9.99-9.31v-34.73c.56-5.46,4.43-10.02,9.72-11.92v-1.79c-5.3-1.89-9.17-6.46-9.72-11.92Z"/>
  <g>
    <g>
      <path class="cls-1" d="M33.29,94.71v.99h-3.01v-6.93h1.13v5.94h1.88Z"/>
      <path class="cls-1" d="M34.01,95.7v-6.93h1.13v6.93h-1.13Z"/>
      <path class="cls-1" d="M37.92,88.77c1.17,0,1.8.61,1.8,1.75v.13c0,.77-.24,1.23-.84,1.42v.02c.7.2,1,.71,1,1.62v.24c0,1.14-.66,1.75-1.87,1.75h-1.66v-6.93h1.57ZM37.48,91.63h.35c.54,0,.77-.26.77-.84v-.23c0-.56-.22-.82-.71-.82h-.4v1.89ZM37.48,94.73h.49c.54,0,.79-.27.79-.85v-.39c0-.61-.24-.89-.84-.89h-.44v2.13Z"/>
      <path class="cls-1" d="M42.32,92.77h-.52v2.93h-1.13v-6.93h1.63c1.21,0,1.87.61,1.87,1.75v.5c0,.73-.28,1.25-.8,1.53l1.03,3.16h-1.19l-.89-2.93ZM41.8,91.8h.46c.54,0,.79-.27.79-.85v-.36c0-.58-.24-.85-.79-.85h-.46v2.06Z"/>
      <path class="cls-1" d="M48.73,90.42v3.62c0,1.09-.69,1.75-1.82,1.75s-1.82-.66-1.82-1.75v-3.62c0-1.09.69-1.75,1.82-1.75s1.82.66,1.82,1.75ZM46.23,90.43v3.6c0,.52.24.79.69.79s.69-.28.69-.79v-3.6c0-.51-.24-.79-.69-.79s-.69.28-.69.79Z"/>
      <path class="cls-1" d="M53.46,88.77c1.21,0,1.87.61,1.87,1.75v3.43c0,1.14-.66,1.75-1.87,1.75h-1.62v-6.93h1.62ZM52.98,94.73h.45c.54,0,.79-.27.79-.85v-3.29c0-.58-.24-.85-.79-.85h-.45v4.99Z"/>
      <path class="cls-1" d="M57.56,89.74v1.96h1.65v.97h-1.65v2.06h2.04v.97h-3.17v-6.93h3.17v.97h-2.04Z"/>
      <path class="cls-1" d="M64.12,92.77h-.52v2.93h-1.13v-6.93h1.63c1.21,0,1.87.61,1.87,1.75v.5c0,.73-.28,1.25-.8,1.53l1.03,3.16h-1.19l-.89-2.93ZM63.6,91.8h.46c.54,0,.79-.27.79-.85v-.36c0-.58-.24-.85-.79-.85h-.46v2.06Z"/>
      <path class="cls-1" d="M68.15,89.74v1.96h1.65v.97h-1.65v2.06h2.04v.97h-3.17v-6.93h3.17v.97h-2.04Z"/>
      <path class="cls-1" d="M74.51,90.33v.62l-1.08.05v-.56c0-.55-.22-.8-.64-.8s-.64.25-.64.7v3.78c0,.46.22.7.64.7s.64-.25.64-.8v-.77l1.08.05v.83c0,1.05-.65,1.66-1.75,1.66s-1.73-.61-1.73-1.66v-3.8c0-1.05.64-1.66,1.73-1.66s1.75.61,1.75,1.66Z"/>
      <path class="cls-1" d="M78.48,94.71v.99h-3.01v-6.93h1.13v5.94h1.88Z"/>
      <path class="cls-1" d="M81.66,95.7l-.24-1.57h-1.24l-.24,1.57h-1.13l1.29-6.93h1.44l1.29,6.93h-1.15ZM80.32,93.18h.95l-.46-2.92h-.03l-.46,2.92Z"/>
      <path class="cls-1" d="M87.26,95.7v-4.81h-.02l-.94,3.82h-.67l-.94-3.82h-.02v4.81h-1.06v-6.93h1.48l.88,3.72h.02l.87-3.72h1.52v6.93h-1.13Z"/>
      <path class="cls-1" d="M92.06,95.7l-.24-1.57h-1.24l-.24,1.57h-1.13l1.29-6.93h1.44l1.29,6.93h-1.15ZM90.72,93.18h.95l-.46-2.92h-.03l-.46,2.92Z"/>
      <path class="cls-1" d="M97.33,90.33v.62l-1.08.05v-.56c0-.55-.22-.8-.64-.8s-.64.25-.64.7v3.78c0,.46.22.7.64.7s.64-.25.64-.8v-.77l1.08.05v.83c0,1.05-.65,1.66-1.75,1.66s-1.73-.61-1.73-1.66v-3.8c0-1.05.64-1.66,1.73-1.66s1.75.61,1.75,1.66Z"/>
      <path class="cls-1" d="M98.28,95.7v-6.93h1.13v6.93h-1.13Z"/>
      <path class="cls-1" d="M104.14,90.42v3.62c0,1.09-.69,1.75-1.82,1.75s-1.82-.66-1.82-1.75v-3.62c0-1.09.69-1.75,1.82-1.75s1.82.66,1.82,1.75ZM101.63,90.43v3.6c0,.52.24.79.69.79s.69-.28.69-.79v-3.6c0-.51-.24-.79-.69-.79s-.69.28-.69.79Z"/>
      <path class="cls-1" d="M107.8,95.7l-1.48-4.59h-.02v4.59h-1.06v-6.93h1.25l1.33,4.13h.02v-4.13h1.06v6.93h-1.11Z"/>
      <path class="cls-1" d="M111.24,89.74v1.96h1.65v.97h-1.65v2.06h2.04v.97h-3.17v-6.93h3.17v.97h-2.04Z"/>
      <path class="cls-1" d="M117.25,90.26v.2l-1.08.1v-.22c0-.48-.19-.69-.58-.69-.33,0-.56.17-.56.56v.15c0,.39.21.7.95,1.33,1,.86,1.34,1.43,1.34,2.23v.34c0,1.02-.69,1.55-1.72,1.55s-1.74-.56-1.74-1.58v-.46l1.08-.1v.48c0,.46.23.69.64.69.34,0,.62-.17.62-.66v-.22c0-.44-.21-.75-.95-1.38-1-.86-1.34-1.43-1.34-2.18v-.17c0-1.02.64-1.55,1.68-1.55s1.68.56,1.68,1.58Z"/>
    </g>
    <path class="cls-1" d="M89.11,31.65c-6.22,0-11.74,2.83-15.16,7.18h-.91c-3.42-4.35-8.94-7.18-15.16-7.18h-20v39.23h28.95c1.86,0,3.38,1.41,3.38,3.15v1.4h6.56v-1.4c0-1.74,1.52-3.15,3.38-3.15h28.95V31.65h-20ZM66.83,64.86h-22.49v-27.19h13.54c6.8,0,12.33,5.15,12.33,11.49v16.51l-.59.28c-.47-.49-1.27-1.02-2.55-1.08-.08,0-.16,0-.24,0ZM102.64,64.86h-22.49c-.08,0-.16,0-.24,0-1.28.06-2.07.59-2.55,1.08l-.59-.28v-16.51c0-6.33,5.53-11.49,12.33-11.49h13.53v27.19Z"/>
  </g>
</svg>