<?xml version="1.0" encoding="UTF-8"?>
<svg id="Capa_1" data-name="Capa 1" xmlns="http://www.w3.org/2000/svg" viewBox="0 0 37 37">
  <defs>
    <style>
      .cls-1 {
        fill: #fff;
      }
    </style>
  </defs>
  <path class="cls-1" d="M26.65,16.8l-.39,2.93c-.07.49-.51.86-1.04.86h-5.09v12.23c-.54.05-1.08.07-1.63.07-1.23,0-2.43-.11-3.59-.33v-11.97h-3.91c-.36,0-.65-.27-.65-.61v-3.66c0-.34.29-.61.65-.61h3.91v-5.49c0-3.37,2.92-6.1,6.52-6.1h4.57c.36,0,.65.27.65.61v3.66c0,.34-.29.61-.65.61h-3.26c-1.44,0-2.61,1.09-2.61,2.44v4.27h5.48c.63,0,1.12.52,1.04,1.1Z"/>
</svg>