<?xml version="1.0" encoding="UTF-8"?>
<svg id="Capa_1" data-name="Capa 1" xmlns="http://www.w3.org/2000/svg" viewBox="0 0 97.05 84.83">
  <defs>
    <style>
      .cls-1 {
        fill: #143042;
      }
    </style>
  </defs>
  <path class="cls-1" d="M10.57,64.89c0,5.57,1.43,9.54,4.36,12.15,3.8,3.37,9.69,4.08,16.71,4.08,2.43,0,5-.08,7.65-.17,2.97-.1,6.05-.2,9.23-.2,2.47,0,4.89.04,7.22.09,11.13.2,20.75.38,26.2-4.54,3.05-2.76,4.53-6.86,4.53-12.55,0-13.58-9.16-31.58-23.96-37-.17-.06-.36-.1-.54-.1h-26.91c-.19,0-.37.03-.54.1-14.33,5.24-23.96,23.96-23.96,38.14ZM35.36,29.36h26.34c12.07,4.58,21.85,19.93,21.85,34.38,0,4.93-1.19,8.4-3.65,10.62-4.57,4.12-13.61,3.96-24.08,3.77-2.35-.04-4.78-.09-7.28-.09-3.23,0-6.33.1-9.33.2-9.66.32-18.01.59-22.22-3.15-2.33-2.07-3.47-5.41-3.47-10.21,0-16.34,11.25-31.48,21.85-35.53Z"/>
  <path class="cls-1" d="M36.84,24.2h23.05c.41,0,.8-.16,1.07-.43,4.29-4.22,6.85-12.83,6.85-18.71,0-.75-.66-1.35-1.47-1.35H30.39c-.81,0-1.47.61-1.47,1.35,0,5.89,2.56,14.5,6.85,18.71.28.27.67.43,1.07.43ZM64.83,6.41c-.33,4.96-2.4,11.57-5.6,15.08h-21.73c-3.2-3.51-5.26-10.12-5.6-15.08h32.92Z"/>
  <path class="cls-1" d="M37.72,64.86c2.23,1.27,5.49,1.79,7.33,1.99v2.72c0,.75.66,1.35,1.47,1.35h4.5c.39,0,.77-.14,1.04-.4.28-.25.43-.6.43-.96l-.02-3.14c3.53-.79,7.06-3.56,7.5-7.83h0c.54-5.35-3.32-7.52-4.1-7.9-.47-.23-1.17-.48-2.05-.81-1.55-.57-3.68-1.35-5.22-2.26-.59-.34-.8-.86-.71-1.19.11-.41.73-.52,1.08-.54,2.64-.17,6.74,1.07,6.78,1.08.39.12.83.08,1.19-.11.36-.19.62-.51.71-.88l1.09-4.46c.14-.56-.12-1.13-.64-1.44-1.41-.83-4.02-1.24-5.67-1.43v-2.42c0-.75-.66-1.35-1.47-1.35h-4.5c-.81,0-1.47.61-1.47,1.35v3.09c-5.25,1.37-7.79,4.65-7.2,9.32.66,5.14,8.04,7.33,9.51,7.72,3.07.81,2.95,1.27,2.79,1.92-.17.7-2.73,1.15-5.21.68-2.1-.4-3.97-1.31-3.99-1.32-.38-.19-.84-.22-1.25-.07-.41.15-.72.46-.85.84l-1.7,4.85c-.21.59.05,1.24.62,1.57ZM41.08,60.73c.86.32,1.98.69,3.2.92,3.07.58,7.92.33,8.67-2.74.88-3.61-2.85-4.59-4.85-5.12-2.4-.63-7.03-2.58-7.4-5.43-.46-3.62,1.46-5.73,6.05-6.62.68-.13,1.17-.69,1.17-1.32v-2.79h1.56v2.28c0,.71.59,1.29,1.35,1.35,1.38.1,3.46.39,4.77.78l-.48,1.97c-1.64-.4-4.26-.93-6.35-.79-1.9.12-3.32,1.11-3.73,2.57-.42,1.53.37,3.2,1.98,4.14,1.77,1.04,4.05,1.88,5.71,2.49.74.27,1.43.53,1.76.68.49.24,2.92,1.62,2.55,5.25-.34,3.35-3.43,5.37-6.17,5.58-.77.06-1.35.65-1.35,1.36l.02,2.94h-1.56v-2.6c0-.72-.61-1.31-1.39-1.35-1.13-.05-4.15-.38-6.32-1.23l.81-2.31Z"/>
</svg>