<?xml version="1.0" encoding="UTF-8"?>
<svg id="Capa_1" data-name="Capa 1" xmlns="http://www.w3.org/2000/svg" viewBox="0 0 97.05 84.83">
  <defs>
    <style>
      .cls-1 {
        fill: #143042;
      }
    </style>
  </defs>
  <path class="cls-1" d="M73.8,4.54l-8.51,7.84c-.43-.05-.85-.09-1.28-.12-3.05-1.14-8.47-1.94-14.83,2.57l-.15.12-2.09,1.93c-7.86-4.91-14.1-1.88-15.86-.82l-7.83-7.21L-1.44,31.59l9.36,8.62c.07,3.86,1.56,7.82,4.46,11.82,1.19,1.65,2.59,3.17,4.1,4.58,1.93,1.8,3.88,3.58,5.82,5.37-2.11,2.83-1.2,5.16.99,7.27,2.28,2.18,4.37,2.44,7.46,1.62.03,0,.06,0,.07.03,2.21,3.05,4.26,4.53,6.46,4.7.91.82,1.82,1.65,2.74,2.46,2.72,2.42,6.88,2.96,10.16,1.23,1.42-.75,1.66-1.37,2.39-2.43,5.56,4.29,9.26,4.37,13.63-1.65.02-.02.05-.03.07-.03,3.09.82,5.19.57,7.46-1.62,2.32-2.22,3.2-4.71.61-7.75-.02-.02-.69-.82-.66-.82,1.85.05,3.31-1.03,4.12-1.99,2.15-2.56,2.02-5.25-.29-7.89,1.01-.93,2.03-1.86,3.03-2.79,1.51-1.41,2.9-2.93,4.1-4.58,2.9-4,4.39-7.96,4.46-11.82l9.36-8.62-24.68-22.73ZM17.98,53.3c-2.84-2.76-4.97-5.81-5.9-9.27-.21-.77-.35-1.56-.44-2.38-.07-.66-.09-1.34-.07-2.03L2.08,30.88,22.49,12.09l6.54,6.02.43.4-.03.06,3.16.24.21-.47c1.25-.78,6.42-3.42,13.32,1.42l9.14,8.45c.46.42.71.99.71,1.6,0,.61-.26,1.17-.72,1.59l-.6.55c-.96.88-2.51.87-3.46,0l-9.35-8.65-2.27,1.46,2.53,2.73,1.09,1.01c-1.07.99-2.15,1.98-3.22,2.97-.27.25-.42.51-.49.78-.05.05-.11.1-.16.15-6.28,5.79-12.58,11.57-18.85,17.38-1.25,1.16-2.08,2.34-2.48,3.51ZM48.27,76.74c-.72.63-1.47,1.02-2.55.94-1.49-.11-2.53-1.16-3.25-1.81-.44-.4-.88-.81-1.32-1.21,1.04-.51,2.13-1.22,3.31-2.13.73,1.06.97,1.68,2.39,2.43.64.34,1.31.58,1.99.75-.12.42-.3.8-.57,1.03ZM61.74,75.58c-1.4,1.52-3,1.65-5.05-.1-.32-.27-.63-.55-.94-.82.45-.27.88-.58,1.27-.93,1.17-1.04,2.33-2.1,3.5-3.15.12.11.25.23.37.34,1.93,1.78,2.18,3.22.85,4.65ZM71.5,70.88c-1.42,1.78-3.58,1.82-5.52.04-.96-.88-1.92-1.77-2.89-2.66,1.59-1.43,3.18-2.85,4.76-4.28.89.82,1.79,1.65,2.68,2.47,1.72,1.59,2.02,3.1.96,4.43ZM75.46,60.34c-.72,1.66-2.86,2.44-4.56,1.58-.17-.08-.32-.18-.48-.28,1.53-1.4,3.05-2.81,4.57-4.21.66.8,1,1.7.47,2.91ZM85.47,35.31c.02.69,0,1.37-.07,2.03-.08.81-.23,1.6-.44,2.37-.94,3.47-3.08,6.54-5.94,9.31-3.88,3.76-7.94,7.35-11.92,11.01-4.17,3.85-8.33,7.71-12.54,11.52-.72.66-1.76,1.71-3.25,1.81-1.08.08-1.82-.31-2.55-.94-.65-.57-.86-1.99-.61-2.88.27-.97,1.2-1.84,2.01-2.6,1.9-1.79,3.84-3.56,5.76-5.33.94-.87,1.87-1.73,2.79-2.61.98-.93,3.85-2.9,2.24-4.29-1.48-1.27-3.59,1.18-4.48,2.01-.94.87-1.87,1.73-2.83,2.59-4.42,3.97-8.78,8.01-13.31,11.87-2.05,1.75-3.65,1.62-5.05.1-1.33-1.44-1.07-2.87.85-4.65,5.01-4.62,10.02-9.23,15.03-13.85.7-.65,1.31-1.07,1.44-2.06.1-.73-.19-1.38-1.01-1.49-1.38-.19-1.98.29-2.86,1.11-5.9,5.43-11.78,10.86-17.69,16.28-1.94,1.78-4.1,1.74-5.52-.04-1.06-1.33-.76-2.84.96-4.43,5.98-5.53,11.97-11.05,17.98-16.56.98-.9,1.75-1.9.55-2.94-1.15-.99-2.14-.11-3.01.7-4.61,4.26-9.23,8.51-13.86,12.76-.62.56-1.26,1.14-2.01,1.52-1.7.86-3.84.08-4.56-1.58-.74-1.7.21-2.78,1.38-3.85,7.66-7.03,15.33-14.07,22.92-21.16l3.14,2.9c1.07.99,2.47,1.48,3.88,1.48,1.4,0,2.8-.49,3.86-1.47l.6-.55c1.03-.95,1.61-2.21,1.61-3.56,0-1.27-.51-2.45-1.42-3.38l-6.96-6.47h0s-1.37-1.27-1.37-1.27l1.86-1.72c2.88-2.02,5.44-2.73,7.56-2.82,3.87-.32,7.3,1.54,7.3,1.54l2.06-1.9,6.54-6.02,20.4,18.79-9.49,8.74Z"/>
</svg>