<?xml version="1.0" encoding="UTF-8"?>
<svg id="Capa_1" data-name="Capa 1" xmlns="http://www.w3.org/2000/svg" viewBox="0 0 97.05 84.83">
  <defs>
    <style>
      .cls-1 {
        fill: #143042;
      }
    </style>
  </defs>
  <g id="D_-_508_Diamond_jewel_present" data-name="D - 508, Diamond, jewel, present">
    <g>
      <path class="cls-1" d="M87.44,35.38q-.13-.12-.26-.24c-23.46-17.38-22.01-16.41-22.41-16.53-.13-.12-.39-.12-.65-.12-33.28,0-31.32,0-31.58,0s-.52.12-.66.24c-23.59,17.5-22.15,16.41-22.28,16.53-.52.6-.52,1.45,0,1.93.13.12,37.08,40.31,37.74,40.91.65.72,1.83.72,2.49,0,0,0,37.61-40.91,37.74-40.91.13-.12.26-.36.26-.6,0-.12,0-.85-.39-1.21ZM39.61,37.8h17.95l-9.04,32.58-8.91-32.58ZM51.54,21.5h10.48l-2.88,10.74-7.6-10.74ZM57.04,34.78h-16.9l8.52-12.07,8.39,12.07ZM38.04,32.24l-3.01-10.74h10.48l-7.47,10.74ZM65.17,22.59l16.51,12.19h-19.92l3.41-12.19ZM32.01,22.59l3.41,12.19H15.5l16.51-12.19ZM36.21,37.8l9.3,33.67L14.45,37.8h21.75ZM51.67,71.59l9.3-33.79h21.75l-31.06,33.79Z"/>
      <path class="cls-1" d="M48.52,15.47c.92,0,1.7-.72,1.7-1.57v-6.15c0-.84-.79-1.57-1.7-1.57s-1.7.72-1.7,1.57v6.15c.13.84.79,1.57,1.7,1.57Z"/>
      <path class="cls-1" d="M57.7,15.47c.52,0,1.05-.24,1.31-.6l4.59-5.79c.52-.72.39-1.57-.39-2.05-.79-.48-1.7-.36-2.23.36l-4.59,5.79c-.79.84,0,2.29,1.31,2.29Z"/>
      <path class="cls-1" d="M37.38,14.75c.26.36.79.6,1.31.6,1.31,0,2.1-1.45,1.31-2.41l-4.59-5.79c-.52-.72-1.57-.85-2.23-.36-.79.48-.92,1.45-.39,2.05l4.59,5.91Z"/>
    </g>
  </g>
</svg>