<?xml version="1.0" encoding="UTF-8"?>
<svg id="Capa_1" data-name="Capa 1" xmlns="http://www.w3.org/2000/svg" viewBox="0 0 20 20">
  <defs>
    <style>
      .cls-1, .cls-2 {
        fill: #faea26;
      }

      .cls-2 {
        fill-rule: evenodd;
      }
    </style>
  </defs>
  <path class="cls-1" d="M.98,17.76l1.3-4.15c-.73-1.14-1.12-2.41-1.12-3.7C1.15,5.68,5.16,2.24,10.09,2.24s8.94,3.44,8.94,7.67-4.01,7.67-8.94,7.67c-1.48,0-2.94-.32-4.25-.93l-4.86,1.12ZM6.08,15.09l.31.16c1.12.57,2.4.88,3.7.88,4,0,7.25-2.79,7.25-6.22s-3.25-6.22-7.25-6.22-7.25,2.79-7.25,6.22c0,1.13.37,2.25,1.06,3.22l.19.26-.72,2.32,2.72-.62Z"/>
  <path class="cls-2" d="M13.41,10.97c-.37-.19-.85-.4-1.28-.25-.33.12-.54.56-.76.79-.11.12-.24.14-.41.08-1.25-.43-2.2-1.14-2.89-2.13-.12-.15-.1-.27.04-.42.21-.21.47-.45.53-.73.06-.28-.1-.61-.23-.87-.17-.32-.37-.78-.75-.96-.35-.17-.8-.07-1.11.14-.53.37-.79.95-.78,1.53,0,.16.03.33.07.49.11.38.31.74.54,1.07.17.25.36.5.57.74.67.78,1.5,1.45,2.46,1.96.48.25,1,.47,1.53.63.6.17,1.14.35,1.79.24.68-.11,1.35-.47,1.62-1.03.08-.17.12-.35.08-.53-.09-.36-.67-.58-1.01-.75Z"/>
</svg>