<?xml version="1.0" encoding="UTF-8"?>
<svg id="Capa_1" data-name="Capa 1" xmlns="http://www.w3.org/2000/svg" viewBox="0 0 97.05 84.83">
  <defs>
    <style>
      .cls-1 {
        fill: #fff;
      }
    </style>
  </defs>
  <g id="_499_Arrow_Interface_Right_User" data-name="499, Arrow, Interface, Right, User">
    <g>
      <path class="cls-1" d="M46.51,72.69c-9.48,0-18.25-3.11-25-8.82-6.65-5.71-10.28-13.32-10.28-21.45s3.63-15.66,10.28-21.45c6.65-5.71,15.53-8.82,25-8.82s18.25,3.11,25,8.82c6.65,5.71,10.28,13.32,10.28,21.45s-3.63,15.66-10.28,21.45c-6.75,5.71-15.53,8.82-25,8.82ZM46.51,14.65c-17.85,0-32.36,12.46-32.36,27.77s14.52,27.77,32.36,27.77,32.36-12.54,32.36-27.77-14.52-27.77-32.36-27.77Z"/>
      <path class="cls-1" d="M46.51,66.37c-15.43,0-27.93-10.81-27.93-23.96s12.6-23.96,27.93-23.96,27.93,10.81,27.93,23.96-12.5,23.96-27.93,23.96ZM46.51,20.96c-13.81,0-25,9.6-25,21.45s11.19,21.45,25,21.45,25-9.6,25-21.45-11.19-21.45-25-21.45Z"/>
      <path class="cls-1" d="M56.49,42.07c-.3,0-.5-.09-.71-.17l-19.86-9.77c-.71-.35-.91-1.12-.61-1.73.4-.61,1.31-.78,2.02-.52l19.86,9.77c.71.35.91,1.12.6,1.73-.4.43-.81.69-1.31.69Z"/>
      <path class="cls-1" d="M36.53,55.04c-.4,0-.81-.17-1.21-.52-.5-.52-.3-1.3.3-1.73l19.86-12.98c.6-.43,1.51-.35,2.02.26.5.52.3,1.3-.3,1.73l-19.76,12.98c-.2.17-.5.26-.91.26Z"/>
    </g>
  </g>
</svg>