<?xml version="1.0" encoding="UTF-8"?>
<svg id="Capa_1" data-name="Capa 1" xmlns="http://www.w3.org/2000/svg" viewBox="0 0 97.05 84.83">
  <defs>
    <style>
      .cls-1 {
        fill: #143042;
      }
    </style>
  </defs>
  <g id="_478_Lock_Password_Password_Lock_Secure_Password" data-name="478, Lock, Password, Password Lock, Secure Password">
    <g>
      <path class="cls-1" d="M73.58,69.82H23.57c-.81,0-1.51-.52-1.51-1.3v-31.49c0-.69.6-1.3,1.51-1.3h49.91c.81,0,1.51.52,1.51,1.3v31.49c0,.69-.6,1.3-1.41,1.3ZM25.08,67.31h46.98v-29.06H25.08v29.06Z"/>
      <path class="cls-1" d="M64.81,38.25h-32.36c-.81,0-1.51-.52-1.51-1.3v-12.54c0-8.39,7.96-15.14,17.64-15.14s17.64,6.83,17.64,15.14v12.63c0,.69-.71,1.21-1.41,1.21ZM33.85,35.74h29.44v-11.33c0-6.92-6.65-12.63-14.72-12.63s-14.72,5.71-14.72,12.63v11.33h0Z"/>
      <path class="cls-1" d="M48.57,55.9c-4.03,0-7.36-2.85-7.36-6.31s3.33-6.31,7.36-6.31,7.36,2.85,7.36,6.31-3.33,6.31-7.36,6.31ZM48.57,45.86c-2.42,0-4.44,1.64-4.44,3.81s1.92,3.81,4.44,3.81,4.44-1.64,4.44-3.81-2.02-3.81-4.44-3.81Z"/>
      <path class="cls-1" d="M48.57,63.51c-.81,0-1.51-.52-1.51-1.3v-7.61c0-.69.6-1.3,1.51-1.3.81,0,1.51.52,1.51,1.3v7.61c0,.69-.71,1.3-1.51,1.3Z"/>
    </g>
  </g>
</svg>