<?xml version="1.0" encoding="UTF-8"?>
<svg id="Capa_1" data-name="Capa 1" xmlns="http://www.w3.org/2000/svg" viewBox="0 0 97.05 84.83">
  <defs>
    <style>
      .cls-1 {
        fill: #143042;
      }
    </style>
  </defs>
  <g id="_480_Document_File_User_Interface" data-name="480, Document, File, User, Interface">
    <g>
      <path class="cls-1" d="M82.3,74.96H27.85c-.81,0-1.51-.56-1.51-1.39V23.43c0-.74.61-1.39,1.51-1.39h54.44c.81,0,1.51.56,1.51,1.39v50.14c0,.84-.61,1.39-1.51,1.39ZM29.37,72.26h51.42V24.82H29.37v47.45Z"/>
      <path class="cls-1" d="M14.75,62.79c-.81,0-1.51-.56-1.51-1.39V11.26c0-.74.6-1.39,1.51-1.39h54.44c.81,0,1.51.56,1.51,1.39,0,.74-.6,1.39-1.51,1.39H16.16v48.75c0,.74-.71,1.39-1.41,1.39Z"/>
      <path class="cls-1" d="M73.53,32.99h-36.8c-.81,0-1.51-.56-1.51-1.39s.61-1.39,1.51-1.39h36.8c.81,0,1.51.56,1.51,1.39s-.71,1.39-1.51,1.39Z"/>
      <path class="cls-1" d="M73.53,39.77h-36.8c-.81,0-1.51-.56-1.51-1.39s.61-1.39,1.51-1.39h36.8c.81,0,1.51.56,1.51,1.39s-.71,1.39-1.51,1.39Z"/>
      <path class="cls-1" d="M73.53,46.54h-36.8c-.81,0-1.51-.56-1.51-1.39,0-.74.61-1.39,1.51-1.39h36.8c.81,0,1.51.56,1.51,1.39-.1.84-.71,1.39-1.51,1.39Z"/>
      <path class="cls-1" d="M73.53,53.32h-36.8c-.81,0-1.51-.56-1.51-1.39s.61-1.39,1.51-1.39h36.8c.81,0,1.51.56,1.51,1.39s-.71,1.39-1.51,1.39Z"/>
      <path class="cls-1" d="M73.53,60.1h-36.8c-.81,0-1.51-.56-1.51-1.39,0-.74.61-1.39,1.51-1.39h36.8c.81,0,1.51.56,1.51,1.39-.1.74-.71,1.39-1.51,1.39Z"/>
      <path class="cls-1" d="M73.53,66.79h-36.8c-.81,0-1.51-.56-1.51-1.39s.61-1.39,1.51-1.39h36.8c.81,0,1.51.56,1.51,1.39s-.71,1.39-1.51,1.39Z"/>
    </g>
  </g>
</svg>