<?xml version="1.0" encoding="UTF-8"?>
<svg id="Capa_1" data-name="Capa 1" xmlns="http://www.w3.org/2000/svg" viewBox="0 0 97.05 84.83">
  <defs>
    <style>
      .cls-1 {
        fill: #faea26;
      }
    </style>
  </defs>
  <path class="cls-1" d="M55.33,72.3c-.61,0-1.11-.26-1.31-.69-.1-.09-5.04-8.56-9.98-17.91-2.92-5.45-5.24-10.12-6.96-13.84-2.22-4.76-3.23-7.96-3.23-9.77,0-4.84,2.22-9.43,6.15-12.89,4.03-3.55,9.48-5.36,15.22-5.36s11.19,1.9,15.22,5.36c4.03,3.46,6.25,8.04,6.15,12.89,0,1.73-1.11,4.93-3.23,9.77-1.61,3.72-3.93,8.39-6.75,13.84-4.84,9.26-9.78,17.82-9.88,17.91-.3.43-.81.69-1.41.69h0ZM55.23,14.34c-4.94,0-9.58,1.64-13.11,4.67-3.43,2.94-5.34,6.92-5.34,11.07.1,5.1,12.4,27.42,18.55,38.06,6.05-10.73,18.25-33.04,18.25-38.06h0c0-4.15-1.81-8.13-5.34-11.07-3.43-3.03-8.07-4.67-13.01-4.67Z"/>
  <path class="cls-1" d="M55.23,40.81c-6.96,0-12.5-4.76-12.5-10.73s5.55-10.73,12.5-10.73,12.5,4.76,12.5,10.73-5.65,10.73-12.5,10.73ZM55.23,21.96c-5.34,0-9.58,3.72-9.58,8.22s4.34,8.22,9.58,8.22,9.58-3.72,9.58-8.22-4.34-8.22-9.58-8.22Z"/>
</svg>