<?xml version="1.0" encoding="UTF-8"?>
<svg id="Capa_1" data-name="Capa 1" xmlns="http://www.w3.org/2000/svg" viewBox="0 0 37 37">
  <defs>
    <style>
      .cls-1 {
        fill: #fff;
      }
    </style>
  </defs>
  <path class="cls-1" d="M26.49,4.11h-15.98c-4.12,0-7.46,3.11-7.46,6.95v14.88c0,3.83,3.34,6.95,7.46,6.95h15.98c4.12,0,7.46-3.11,7.46-6.95v-14.88c0-3.83-3.34-6.95-7.46-6.95ZM31.28,25.45c0,2.74-2.39,4.96-5.33,4.96h-14.92c-2.94,0-5.33-2.22-5.33-4.96v-13.89c0-2.74,2.39-4.96,5.33-4.96h14.92c2.94,0,5.33,2.22,5.33,4.96v13.89Z"/>
  <path class="cls-1" d="M18.52,11.06c-4.41,0-7.99,3.33-7.99,7.44s3.58,7.44,7.99,7.44,7.99-3.33,7.99-7.44-3.58-7.44-7.99-7.44ZM18.52,23.46c-2.94,0-5.33-2.23-5.33-4.96s2.39-4.96,5.33-4.96,5.33,2.23,5.33,4.96-2.39,4.96-5.33,4.96Z"/>
  <ellipse class="cls-1" cx="27.04" cy="10.56" rx="1.6" ry="1.49"/>
</svg>