<?xml version="1.0" encoding="UTF-8"?>
<svg id="Capa_1" data-name="Capa 1" xmlns="http://www.w3.org/2000/svg" viewBox="0 0 37 37">
  <defs>
    <style>
      .cls-1 {
        fill: #fff;
      }
    </style>
  </defs>
  <path class="cls-1" d="M23.84,24.96v-12.42s1.5,2.33,6.94,2.48c.29,0,.53-.21.53-.48v-3.51c0-.26-.22-.47-.5-.48-4.22-.22-6.22-3.23-6.42-6-.02-.26-.26-.45-.53-.45h-4.3c-.29,0-.52.22-.52.48v19.75c0,2.15-1.76,4.01-4.06,4.11-2.63.12-4.77-1.99-4.44-4.47.23-1.76,1.74-3.19,3.62-3.44.37-.05.74-.05,1.09-.02.31.03.59-.18.59-.48v-3.52c0-.25-.2-.47-.47-.48-.54-.03-1.09-.02-1.65.04-4.15.44-7.49,3.56-7.95,7.43-.61,5.1,3.66,9.41,9.01,9.41,5.01,0,9.07-3.78,9.07-8.45"/>
</svg>