<?xml version="1.0" encoding="UTF-8"?>
<svg id="Capa_1" data-name="Capa 1" xmlns="http://www.w3.org/2000/svg" viewBox="0 0 66.2 82.79">
  <defs>
    <style>
      .cls-1, .cls-2 {
        fill: #143042;
      }

      .cls-2 {
        fill-rule: evenodd;
      }
    </style>
  </defs>
  <path class="cls-1" d="M13.94,65.48l2.75-10.28c-1.56-2.81-2.38-5.97-2.38-9.17,0-10.46,8.51-18.97,18.97-18.97s18.98,8.51,18.98,18.97-8.51,18.98-18.98,18.98c-3.14,0-6.24-.79-9.02-2.3l-10.33,2.77ZM24.78,58.86l.65.39c2.39,1.42,5.1,2.18,7.86,2.18,8.49,0,15.39-6.9,15.39-15.39s-6.9-15.39-15.39-15.39-15.39,6.9-15.39,15.39c0,2.8.78,5.56,2.25,7.98l.4.66-1.54,5.74,5.77-1.55Z"/>
  <path class="cls-2" d="M40.34,48.68c-.78-.47-1.8-.99-2.72-.61-.71.29-1.16,1.39-1.61,1.96-.23.29-.51.33-.88.19-2.65-1.06-4.68-2.82-6.14-5.26-.25-.38-.2-.68.1-1.03.44-.52,1-1.11,1.12-1.81.12-.7-.21-1.52-.5-2.14-.37-.8-.78-1.93-1.58-2.39-.73-.41-1.7-.18-2.36.35-1.13.92-1.67,2.36-1.66,3.79,0,.41.05.81.15,1.2.23.94.66,1.82,1.15,2.66.37.63.77,1.24,1.2,1.83,1.42,1.93,3.18,3.6,5.22,4.85,1.02.62,2.12,1.17,3.26,1.55,1.28.42,2.41.86,3.79.6,1.44-.27,2.86-1.17,3.44-2.56.17-.41.25-.87.16-1.3-.2-.9-1.41-1.43-2.14-1.87Z"/>
</svg>