<?xml version="1.0" encoding="UTF-8"?>
<svg id="Capa_1" data-name="Capa 1" xmlns="http://www.w3.org/2000/svg" viewBox="0 0 62.48 64.04">
  <defs>
    <style>
      .cls-1 {
        fill: #143042;
      }
    </style>
  </defs>
  <path class="cls-1" d="M53.67,24.53c-1.13-2.67-2.75-5.07-4.81-7.13-2.06-2.06-4.46-3.68-7.13-4.81-2.23-.94-4.56-1.51-6.97-1.7v-2.47h1.43c1.11,0,2.01-.9,2.01-2.01s-.9-2.01-2.01-2.01h-6.38c-1.11,0-2.01.9-2.01,2.01s.9,2.01,2.01,2.01h1.43v2.47c-3.97.31-7.76,1.66-11.05,3.95-1.81,1.26-3.43,2.79-4.8,4.52-1.13,1.43-2.08,2.99-2.83,4.64h-5.85c-.97,0-1.76.79-1.76,1.76s.79,1.76,1.76,1.76h6.99s.02,0,.02,0c0,0,.02,0,.03,0h6.11c.97,0,1.76-.79,1.76-1.76s-.79-1.76-1.76-1.76h-3.36c.48-.86,1.03-1.68,1.65-2.46,1.16-1.47,2.52-2.75,4.05-3.82,3.18-2.21,6.91-3.38,10.8-3.38,2.55,0,5.03.5,7.36,1.49,2.25.95,4.27,2.32,6.01,4.05,1.74,1.74,3.1,3.76,4.05,6.01.99,2.33,1.49,4.81,1.49,7.36s-.5,5.03-1.49,7.36c-.95,2.25-2.32,4.27-4.05,6.01-1.74,1.74-3.76,3.1-6.01,4.05-2.33.99-4.81,1.49-7.36,1.49-3.89,0-7.62-1.17-10.8-3.38-1.53-1.07-2.89-2.35-4.05-3.82-.62-.78-1.17-1.6-1.65-2.46h3.36c.97,0,1.76-.79,1.76-1.76s-.79-1.76-1.76-1.76h-6.12s-.04,0-.06,0h-4.96c-.97,0-1.76.79-1.76,1.76s.79,1.76,1.76,1.76h3.83c.75,1.65,1.7,3.21,2.83,4.64,1.37,1.74,2.99,3.26,4.8,4.52,3.77,2.63,8.2,4.01,12.81,4.01,3.03,0,5.97-.59,8.73-1.76,2.67-1.13,5.07-2.75,7.13-4.81,2.06-2.06,3.68-4.46,4.81-7.13,1.17-2.77,1.76-5.7,1.76-8.73s-.59-5.97-1.76-8.73Z"/>
  <path class="cls-1" d="M42.77,22.56l-9.31,6.17c-1.32-.13-2.68.31-3.68,1.31-.86.86-1.34,2.01-1.34,3.23s.47,2.36,1.34,3.23c.86.86,2.01,1.34,3.23,1.34s2.36-.47,3.23-1.34c0,0,0,0,0,0,.86-.86,1.34-2.01,1.34-3.23,0-.15,0-.31-.02-.46l6.16-9.31c.4-.61-.32-1.33-.93-.93ZM33.74,34h0c-.41.41-1.07.41-1.47,0-.2-.2-.3-.46-.3-.74s.11-.54.3-.74.47-.3.74-.3.53.1.74.3.3.46.3.74-.11.54-.3.74Z"/>
  <path class="cls-1" d="M22.68,33.26c0-.97-.79-1.76-1.76-1.76H3.73c-.97,0-1.76.79-1.76,1.76s.79,1.76,1.76,1.76h17.19c.97,0,1.76-.79,1.76-1.76Z"/>
</svg>