<?xml version="1.0" encoding="UTF-8"?>
<svg id="Capa_1" data-name="Capa 1" xmlns="http://www.w3.org/2000/svg" viewBox="0 0 53.5 57.02">
  <defs>
    <style>
      .cls-1 {
        fill: #143042;
      }
    </style>
  </defs>
  <path class="cls-1" d="M47.74,23.23h-2.22c-.26,0-.47-.21-.47-.47v-3.67c0-.26.21-.47.47-.47h2.22c1.25,0,2.27,1.04,2.27,2.31s-1.02,2.29-2.27,2.29ZM45.99,22.3h1.75c.74,0,1.34-.61,1.34-1.36s-.6-1.38-1.34-1.38h-1.75v2.74Z"/>
  <path class="cls-1" d="M41.98,44.43h-13.56c-2.21,0-4.01-1.82-4.01-4.05v-7c0-.26.21-.47.47-.47s.47.21.47.47v7c0,1.72,1.38,3.12,3.08,3.12h13.56c1.7,0,3.08-1.4,3.08-3.12v-4.59h-1.32c-1.25,0-2.27-1.04-2.27-2.31,0-.74.35-1.41.9-1.83-.55-.42-.9-1.09-.9-1.84s.35-1.4.9-1.82c-.55-.42-.9-1.08-.9-1.82,0-1.27,1.02-2.31,2.27-2.31h1.32v-13.5c0-1.73-1.38-3.14-3.08-3.14h-13.56c-1.7,0-3.08,1.41-3.08,3.14v13.88c0,.26-.21.47-.47.47s-.47-.21-.47-.47v-13.88c0-2.25,1.8-4.07,4.01-4.07h13.56c2.21,0,4.01,1.83,4.01,4.07v13.96c0,.26-.21.47-.47.47h-1.78c-.74,0-1.34.62-1.34,1.38s.6,1.36,1.34,1.36h1.68c.26,0,.52.21.52.47s-.16.47-.41.47h-1.78c-.74,0-1.34.61-1.34,1.36s.6,1.38,1.34,1.38h1.68c.26,0,.52.21.52.47s-.16.47-.41.47h-1.78c-.74,0-1.34.61-1.34,1.36s.6,1.38,1.34,1.38h1.68c.26,0,.57.21.57.47v5.06c0,2.23-1.8,4.05-4.01,4.05Z"/>
  <path class="cls-1" d="M42.92,37.94h-15.45c-.97,0-1.76-.79-1.76-1.77v-2.9c0-.26.21-.47.47-.47s.47.21.47.47v2.9c0,.47.36.84.83.84h15.45c.45,0,.83-.38.83-.84v-.38c-1.26,0-2.28-1.04-2.28-2.31,0-.74.35-1.41.9-1.83-.55-.42-.9-1.09-.9-1.84s.35-1.4.9-1.82c-.55-.42-.9-1.08-.9-1.82,0-1.27,1.02-2.31,2.27-2.31h0v-10.64c0-.45-.38-.84-.83-.84h-15.45c-.46,0-.83.37-.83.84v11.02c0,.26-.21.47-.47.47s-.47-.21-.47-.47v-11.02c0-.98.79-1.77,1.76-1.77h15.45c.97,0,1.76.79,1.76,1.77v11.11c0,.26-.21.47-.47.47h-.47c-.74,0-1.34.62-1.34,1.38s.6,1.36,1.34,1.36h.47c.26,0,.47.21.47.47s-.21.47-.47.47h-.47c-.74,0-1.34.61-1.34,1.36s.6,1.38,1.34,1.38h.47c.26,0,.47.21.47.47s-.21.47-.47.47h-.47c-.74,0-1.34.61-1.34,1.36s.6,1.38,1.34,1.38h.47c.26,0,.47.21.47.47v.85c0,.98-.79,1.77-1.76,1.77Z"/>
  <path class="cls-1" d="M38.61,10.22h-6.83c-.61,0-1.1-.5-1.1-1.11s.5-1.09,1.1-1.09h6.83c.6,0,1.1.5,1.1,1.09s-.49,1.11-1.1,1.11ZM31.78,8.96c-.09,0-.17.08-.17.16,0,.1.08.18.17.18h6.83c.09,0,.17-.08.17-.18,0-.07-.08-.16-.17-.16h-6.83Z"/>
  <path class="cls-1" d="M36.5,42.87h-2.61c-1.03,0-1.86-.83-1.86-1.85s.82-1.88,1.86-1.88h2.61c1.03,0,1.86.84,1.86,1.88s-.83,1.85-1.86,1.85ZM33.89,40.08c-.52,0-.93.41-.93.94s.41.92.93.92h2.61c.5,0,.93-.42.93-.92s-.42-.94-.93-.94h-2.61Z"/>
  <path class="cls-1" d="M19.29,53.73c-.18-.01-.25-.05-.34-.15-3.79-4-7.61-8-11.43-12-.09-.09-.13-.21-.13-.34,0-.12.06-.24.15-.33,1.15-1.07,2.29-2.14,3.43-3.21l1.72-1.61c.95-1.49,1.74-2.86,2.51-4.19.74-1.28,1.51-2.61,2.42-4.05,1.48-2.3,3.24-2.33,5.68-2.36l3.69-.08c2.71-.06,3.23-.02,5.53,1.85,4.74,3.89,4.74,4.8,4.75,5.1,0,.22-.09.42-.25.55-1.5.96-3.42,1.21-5.06.68-1.19-.39-2.13-1.17-2.7-2.22-1.41.85-2.89,1.28-4.4,1.28-.26,0-.47-.21-.47-.47s.21-.47.47-.47c1.51,0,2.92-.46,4.34-1.41.12-.08.27-.1.4-.06.14.04.24.14.3.27.53,1.34,1.57,1.93,2.35,2.18,1.3.42,2.87.25,4.05-.44-.2-.44-1.28-1.74-4.37-4.28-2.1-1.71-2.37-1.7-4.92-1.64l-3.7.08c-2.39.03-3.7.05-4.91,1.93-.9,1.42-1.66,2.74-2.4,4.01-.78,1.35-1.59,2.75-2.56,4.27-.02.03-.05.06-.07.09l-1.76,1.65c-1.03.97-2.05,1.93-3.09,2.9,3.6,3.77,7.19,7.54,10.77,11.31l5.3-5.36c.09-.09.22-.14.35-.14,3.61.13,6.64-1.01,9.31-3.48.19-.17.48-.16.66.02.17.19.16.48-.02.66-2.8,2.6-6.01,3.83-9.77,3.74l-5.5,5.55c-.09.09-.21.14-.33.14Z"/>
  <path class="cls-1" d="M45.42,35.79h-1.68c-1.25,0-2.27-1.04-2.27-2.31,0-.74.35-1.41.9-1.83-.55-.42-.9-1.09-.9-1.84s.35-1.4.9-1.82c-.55-.42-.9-1.08-.9-1.82,0-1.27,1.02-2.31,2.27-2.31h1.68c1.25,0,2.27,1.04,2.27,2.31,0,.74-.35,1.4-.9,1.82.55.42.9,1.08.9,1.82s-.35,1.42-.9,1.84c.55.42.9,1.08.9,1.83,0,1.27-1.02,2.31-2.27,2.31ZM43.74,32.12c-.74,0-1.34.61-1.34,1.36s.6,1.38,1.34,1.38h1.68c.74,0,1.34-.62,1.34-1.38s-.6-1.36-1.34-1.36h-1.68ZM43.74,31.19h1.68c.74,0,1.34-.62,1.34-1.38s-.6-1.36-1.34-1.36h-1.68c-.74,0-1.34.61-1.34,1.36s.6,1.38,1.34,1.38ZM43.74,27.52h1.68c.74,0,1.34-.61,1.34-1.36s-.6-1.38-1.34-1.38h-1.68c-.74,0-1.34.62-1.34,1.38s.6,1.36,1.34,1.36Z"/>
</svg>