<?xml version="1.0" encoding="UTF-8"?>
<svg id="Capa_1" data-name="Capa 1" xmlns="http://www.w3.org/2000/svg" viewBox="0 0 53.46 55.84">
  <defs>
    <style>
      .cls-1 {
        fill: #143042;
      }
    </style>
  </defs>
  <path class="cls-1" d="M6.87,39.52c0,3.16.75,5.42,2.28,6.9,1.99,1.92,5.07,2.32,8.74,2.32,1.27,0,2.61-.05,4-.1,1.56-.06,3.16-.11,4.83-.11,1.29,0,2.56.02,3.78.05,5.82.12,10.86.21,13.71-2.58,1.6-1.57,2.37-3.9,2.37-7.13,0-7.71-4.79-17.94-12.53-21.02-.09-.04-.19-.05-.28-.05h-14.08c-.1,0-.19.02-.28.05-7.5,2.98-12.53,13.61-12.53,21.67ZM19.84,19.34h13.78c6.32,2.6,11.43,11.32,11.43,19.53,0,2.8-.62,4.77-1.91,6.03-2.39,2.34-7.12,2.25-12.6,2.14-1.23-.02-2.5-.05-3.81-.05-1.69,0-3.31.06-4.88.11-5.05.18-9.42.34-11.62-1.79-1.22-1.18-1.81-3.07-1.81-5.8,0-9.28,5.88-17.88,11.43-20.18Z"/>
  <path class="cls-1" d="M20.62,16.41h12.06c.21,0,.42-.09.56-.24,2.24-2.4,3.58-7.29,3.58-10.63,0-.42-.34-.77-.77-.77h-18.81c-.42,0-.77.34-.77.77,0,3.34,1.34,8.23,3.58,10.63.15.16.35.24.56.24ZM35.26,6.3c-.17,2.82-1.26,6.57-2.93,8.57h-11.37c-1.67-1.99-2.75-5.75-2.93-8.57h17.22Z"/>
  <path class="cls-1" d="M21.08,39.51c1.17.72,2.87,1.02,3.84,1.13v1.55c0,.42.34.77.77.77h2.36c.2,0,.4-.08.55-.23.14-.14.23-.34.22-.55v-1.79c1.84-.45,3.68-2.02,3.91-4.45h0c.28-3.04-1.74-4.27-2.15-4.49-.24-.13-.61-.27-1.07-.46-.81-.32-1.93-.77-2.73-1.28-.31-.2-.42-.49-.37-.68.06-.24.38-.29.57-.31,1.38-.1,3.52.61,3.55.61.21.07.43.05.62-.06.19-.11.32-.29.37-.5l.57-2.53c.07-.32-.06-.64-.34-.82-.74-.47-2.1-.71-2.97-.81v-1.37c0-.42-.34-.77-.77-.77h-2.36c-.42,0-.77.34-.77.77v1.75c-2.75.78-4.08,2.64-3.77,5.3.34,2.92,4.21,4.16,4.98,4.38,1.6.46,1.54.72,1.46,1.09-.09.4-1.43.66-2.73.39-1.1-.23-2.08-.75-2.09-.75-.2-.11-.44-.12-.65-.04-.21.09-.38.26-.45.48l-.89,2.76c-.11.34.03.7.33.89ZM22.84,37.16c.45.18,1.04.39,1.67.52,1.61.33,4.14.19,4.54-1.56.46-2.05-1.49-2.61-2.54-2.91-1.26-.36-3.68-1.47-3.87-3.08-.24-2.06.76-3.25,3.17-3.76.36-.07.61-.39.61-.75v-1.59h.82v1.3c0,.4.31.74.71.77.72.06,1.81.22,2.5.44l-.25,1.12c-.86-.23-2.23-.53-3.32-.45-.99.07-1.74.63-1.95,1.46-.22.87.19,1.82,1.03,2.35.93.59,2.12,1.07,2.99,1.41.39.15.75.3.92.39.26.14,1.53.92,1.33,2.98-.18,1.9-1.8,3.05-3.23,3.17-.4.03-.71.37-.71.77v1.67s-.81,0-.81,0v-1.48c0-.41-.32-.75-.73-.77-.59-.03-2.17-.21-3.31-.7l.42-1.31Z"/>
</svg>