<?xml version="1.0" encoding="UTF-8"?>
<svg id="Capa_1" data-name="Capa 1" xmlns="http://www.w3.org/2000/svg" viewBox="0 0 157.32 145.27">
  <defs>
    <style>
      .cls-1 {
        fill: #063144;
      }
    </style>
  </defs>
  <g>
    <path class="cls-1" d="M16.64,56.84l-.08.9c-.25-.14-.48-.25-.68-.3-.21-.06-.44-.08-.7-.08-.36,0-.7.06-1,.18-.3.12-.57.29-.79.51-.23.22-.4.49-.52.79-.12.3-.18.64-.18,1.01,0,.48.11.92.33,1.31.22.39.52.7.91.92.39.22.82.33,1.3.33.45,0,.92-.1,1.41-.29l.07.91c-.26.08-.49.14-.7.18-.21.03-.46.05-.75.05-.69,0-1.31-.13-1.85-.4-.54-.27-.97-.66-1.27-1.17-.31-.51-.46-1.12-.46-1.81,0-.64.15-1.21.44-1.71.29-.5.7-.89,1.23-1.17.53-.28,1.13-.42,1.79-.42.58,0,1.08.1,1.5.29Z"/>
    <path class="cls-1" d="M20.8,56.59l2.86,6.6h-1.06l-.69-1.67h-3.21l-.68,1.67h-1.02l2.81-6.6h.99ZM21.58,60.72l-.76-1.84c-.15-.35-.26-.63-.34-.83-.07-.2-.14-.42-.2-.65-.05.18-.11.35-.17.53-.07.18-.19.5-.38.96l-.73,1.82h2.58Z"/>
    <path class="cls-1" d="M27.66,56.71l-.12.83c-.47-.18-.88-.27-1.24-.27-.24,0-.45.04-.63.11-.18.08-.32.18-.42.32-.1.14-.15.3-.15.48,0,.29.1.51.3.66.2.15.56.36,1.06.62.51.26.89.53,1.14.8.25.27.38.63.38,1.07,0,.39-.09.73-.28,1.04-.19.31-.45.54-.79.71-.34.16-.74.25-1.18.25-.53,0-1.03-.09-1.5-.26l.1-.89c.49.23.92.35,1.29.35.27,0,.5-.05.71-.14.21-.09.37-.22.48-.39s.17-.37.17-.6c0-.33-.11-.58-.33-.75-.22-.17-.57-.37-1.06-.6s-.85-.47-1.1-.72c-.25-.25-.37-.6-.37-1.06,0-.35.09-.67.26-.94.17-.27.42-.48.73-.64.32-.15.68-.23,1.08-.23.51,0,.99.08,1.44.24Z"/>
    <path class="cls-1" d="M32.25,56.59l2.86,6.6h-1.06l-.69-1.67h-3.21l-.68,1.67h-1.02l2.81-6.6h.99ZM33.03,60.72l-.76-1.84c-.15-.35-.26-.63-.34-.83-.07-.2-.14-.42-.2-.65-.05.18-.11.35-.17.53-.07.18-.19.5-.38.96l-.73,1.82h2.58Z"/>
    <path class="cls-1" d="M38.76,56.59h1.37c.47,0,.84.02,1.11.05.44.04.85.16,1.23.34.38.19.7.42.96.71.26.29.47.62.61.99.14.38.22.79.22,1.23,0,.36-.05.7-.16,1.03-.1.33-.25.62-.44.89-.19.26-.42.49-.7.69-.27.19-.58.35-.91.46-.17.06-.34.1-.5.13-.17.03-.35.05-.55.07-.2.01-.44.02-.73.02h-1.5v-6.6ZM39.7,57.4v4.99h.48c.43,0,.76-.02.99-.05.23-.03.45-.09.68-.19.29-.13.53-.3.74-.52s.37-.48.48-.78c.11-.3.17-.62.17-.96,0-.26-.04-.52-.11-.76-.07-.25-.18-.47-.32-.68-.14-.2-.3-.38-.5-.53-.19-.15-.41-.27-.64-.34-.15-.06-.34-.1-.57-.13-.23-.03-.54-.04-.92-.04h-.49Z"/>
    <path class="cls-1" d="M49.25,56.59v.81h-2.73v1.94h2.53v.81h-2.53v2.24h2.81v.8h-3.75v-6.6h3.67Z"/>
    <path class="cls-1" d="M57.21,56.59v.81h-2.73v1.94h2.53v.81h-2.53v2.24h2.81v.8h-3.75v-6.6h3.67Z"/>
    <path class="cls-1" d="M66,56.59v6.6h-.93v-3.77c0-.2,0-.42,0-.65,0-.23,0-.45,0-.65,0-.2,0-.36,0-.5,0-.13,0-.33,0-.6-.06.22-.15.5-.27.83-.11.33-.23.66-.35.99-.12.33-.26.7-.42,1.14l-1.25,3.21h-.91l-1.25-3.21c-.19-.49-.38-1-.58-1.53-.2-.53-.36-1-.49-1.43,0,.05,0,.08,0,.1,0,.03,0,.08,0,.15,0,.07.01.12.02.17,0,.04,0,.09.01.14.05.41.07,1.05.07,1.91v3.7h-.94v-6.6h1.55l1.3,3.31c.19.48.35.89.48,1.22.12.33.23.66.31,1,.16-.55.42-1.3.79-2.24l1.26-3.3h1.57Z"/>
    <path class="cls-1" d="M67.72,56.59h1.31c.47,0,.82.01,1.05.04.23.03.44.08.62.15.37.13.66.36.88.68.21.32.32.69.32,1.1,0,.28-.05.53-.14.77-.1.24-.23.44-.41.62-.18.18-.38.31-.63.41-.17.06-.38.11-.63.14-.25.03-.55.05-.91.05h-.52v2.64h-.94v-6.6ZM68.66,57.4v2.34h.51c.5,0,.92-.08,1.23-.25.32-.17.48-.48.48-.93,0-.22-.05-.41-.15-.58-.1-.17-.24-.3-.43-.39-.19-.09-.42-.15-.69-.17-.21-.01-.53-.02-.95-.02Z"/>
    <path class="cls-1" d="M76.63,56.59v.81h-2.73v1.94h2.53v.81h-2.53v2.24h2.81v.8h-3.75v-6.6h3.67Z"/>
    <path class="cls-1" d="M83.45,56.59v6.6h-1.22l-2.09-3.58c-.36-.64-.61-1.09-.75-1.36-.14-.27-.26-.57-.36-.91.05.72.08,1.56.08,2.49v3.35h-.94v-6.6h1.29l2.25,3.89c.45.79.76,1.42.91,1.89-.04-.44-.07-.74-.07-.89,0-.26-.01-.51-.02-.76,0-.25,0-.41,0-.47,0-.06,0-.22,0-.48v-3.17h.93ZM82.44,54.67c-.04.32-.15.57-.32.76-.17.19-.38.28-.62.28-.1,0-.22-.02-.36-.07-.14-.05-.27-.09-.38-.14-.11-.05-.22-.09-.33-.12-.11-.03-.21-.05-.31-.05-.12,0-.21.03-.28.1-.07.07-.13.18-.19.34h-.45c.1-.69.44-1.03,1-1.03.11,0,.22.02.33.05.11.03.25.08.41.15.16.07.27.11.34.13.06.02.14.03.23.03.13,0,.23-.03.3-.1.07-.07.13-.18.17-.33h.46Z"/>
    <path class="cls-1" d="M87.95,56.47c.66,0,1.24.15,1.72.44.48.29.85.7,1.1,1.21.25.52.38,1.11.38,1.78,0,.52-.07.99-.22,1.42-.15.42-.36.79-.64,1.08-.28.3-.61.53-1,.69-.39.16-.83.24-1.31.24-.66,0-1.23-.15-1.72-.44-.49-.29-.86-.7-1.11-1.22-.25-.52-.38-1.11-.38-1.76,0-.49.07-.95.21-1.36.14-.42.35-.78.62-1.08.27-.31.61-.55,1.01-.72.4-.17.85-.26,1.34-.26ZM87.94,57.21c-.42,0-.8.11-1.13.34-.33.22-.58.54-.76.95-.18.41-.27.87-.27,1.39,0,.38.05.74.16,1.08.11.34.26.63.45.87.2.24.43.42.69.55.27.13.56.19.88.19s.61-.06.87-.19c.27-.13.5-.31.7-.56.2-.24.35-.52.45-.84.1-.32.15-.67.15-1.07,0-.41-.05-.78-.15-1.11-.1-.33-.25-.62-.45-.86-.2-.24-.43-.43-.7-.55-.27-.13-.57-.19-.89-.19Z"/>
    <path class="cls-1" d="M98.33,56.71l-.12.83c-.47-.18-.88-.27-1.24-.27-.24,0-.45.04-.63.11-.18.08-.32.18-.42.32-.1.14-.15.3-.15.48,0,.29.1.51.3.66.2.15.56.36,1.06.62.51.26.89.53,1.14.8.25.27.38.63.38,1.07,0,.39-.09.73-.28,1.04-.19.31-.45.54-.79.71-.34.16-.74.25-1.18.25-.53,0-1.03-.09-1.5-.26l.1-.89c.49.23.92.35,1.29.35.27,0,.5-.05.71-.14.21-.09.37-.22.48-.39s.17-.37.17-.6c0-.33-.11-.58-.33-.75-.22-.17-.57-.37-1.06-.6s-.85-.47-1.1-.72c-.25-.25-.37-.6-.37-1.06,0-.35.09-.67.26-.94.17-.27.42-.48.73-.64.32-.15.68-.23,1.08-.23.51,0,.99.08,1.44.24Z"/>
    <path class="cls-1" d="M103.59,56.59v.81h-2.73v1.94h2.53v.81h-2.53v2.24h2.81v.8h-3.75v-6.6h3.67Z"/>
    <path class="cls-1" d="M110.16,56.87l-.06.91c-.26-.15-.53-.26-.79-.32-.26-.07-.56-.1-.89-.1-.52,0-.98.11-1.39.32-.4.21-.71.51-.93.89-.22.38-.33.81-.33,1.29s.11.95.34,1.35c.22.39.54.7.95.91.41.21.88.32,1.4.32.28,0,.57-.04.89-.13v-1.91h-1.41v-.8h2.36v3.34c-.33.11-.65.19-.94.23-.3.05-.61.07-.94.07-.55,0-1.05-.08-1.5-.23-.45-.15-.83-.38-1.16-.68-.33-.3-.57-.66-.74-1.07-.17-.42-.25-.88-.25-1.41,0-.69.16-1.28.48-1.78.32-.5.75-.88,1.29-1.13.55-.26,1.16-.39,1.83-.39s1.26.1,1.8.31Z"/>
    <path class="cls-1" d="M117.04,56.6v3.71c0,.51-.03.9-.08,1.18-.06.28-.16.53-.3.76-.22.35-.51.61-.88.79-.37.18-.79.27-1.28.27-.36,0-.7-.05-1-.16-.3-.11-.57-.26-.79-.46-.22-.2-.39-.44-.52-.73-.17-.38-.26-.97-.26-1.78v-3.59h.94v3.45c0,.45.02.8.05,1.03.03.24.09.45.19.64.13.25.31.44.57.58.25.14.54.21.85.21.35,0,.63-.08.86-.23.23-.15.39-.36.5-.63.11-.26.18-.56.2-.91,0-.08,0-.3,0-.66v-3.49h.94Z"/>
    <path class="cls-1" d="M118.74,56.59h1.58c.4,0,.69.01.89.04.2.02.4.07.6.14.22.07.42.19.58.34.16.15.29.33.38.54.09.21.14.44.14.68,0,.43-.12.77-.37,1.04-.25.27-.59.44-1.02.51.21.1.37.21.47.32.1.11.22.31.35.59l1.11,2.41h-1.08l-.85-1.98c-.13-.3-.24-.51-.34-.64-.1-.13-.21-.21-.35-.26-.14-.04-.34-.07-.6-.07h-.54v2.94h-.94v-6.6ZM119.68,57.4v2.04h.58c1.11,0,1.67-.34,1.67-1.03,0-.41-.15-.68-.44-.81-.29-.13-.67-.2-1.14-.2h-.68Z"/>
    <path class="cls-1" d="M127.31,56.47c.66,0,1.24.15,1.72.44.48.29.85.7,1.1,1.21.25.52.38,1.11.38,1.78,0,.52-.07.99-.22,1.42-.15.42-.36.79-.64,1.08-.28.3-.61.53-1,.69-.39.16-.83.24-1.31.24-.66,0-1.23-.15-1.72-.44-.49-.29-.86-.7-1.11-1.22-.25-.52-.38-1.11-.38-1.76,0-.49.07-.95.21-1.36.14-.42.35-.78.62-1.08.27-.31.61-.55,1.01-.72.4-.17.85-.26,1.34-.26ZM127.3,57.21c-.42,0-.8.11-1.13.34-.33.22-.58.54-.76.95-.18.41-.27.87-.27,1.39,0,.38.05.74.16,1.08.11.34.26.63.45.87.2.24.43.42.69.55.27.13.56.19.88.19s.61-.06.87-.19c.27-.13.5-.31.7-.56.2-.24.35-.52.45-.84.1-.32.15-.67.15-1.07,0-.41-.05-.78-.15-1.11-.1-.33-.25-.62-.45-.86-.2-.24-.43-.43-.7-.55-.27-.13-.57-.19-.89-.19Z"/>
  </g>
  <g>
    <path class="cls-1" d="M34.52,103.53h-9.41l-13.25-36.41h8.21l8.1,23.43c.67,1.81,1.28,3.76,1.84,5.84.61-2.35,1.25-4.48,1.92-6.4l7.88-22.87h7.62l-12.91,36.41Z"/>
    <path class="cls-1" d="M87.8,103.53h-8.37l-3.31-8.26h-15.71l-3.25,8.26h-7.93l14.82-36.41h8.54l15.21,36.41ZM73.78,89.27l-4.89-12.87c-.11-.28-.36-1.08-.75-2.4-.15.55-.3,1.11-.45,1.67-.15.56-.28,1.01-.39,1.35l-4.56,12.26h11.04Z"/>
    <path class="cls-1" d="M116.06,97.59v5.94h-22.51v-36.41h7.68v30.47h14.83Z"/>
    <path class="cls-1" d="M130.32,103.53h-7.68v-36.41h7.68v36.41Z"/>
  </g>
</svg>